<svg width="20" height="20" viewBox="0 0 20 20" fill="none" xmlns="http://www.w3.org/2000/svg">
<g clip-path="url(#clip0_5_2891)">
<path d="M19.375 8.25037L10.2275 17.3987C9.17261 18.4536 7.74186 19.0462 6.25 19.0462C4.75815 19.0462 3.3274 18.4536 2.2725 17.3987C1.21761 16.3438 0.624969 14.9131 0.624969 13.4212C0.624969 11.9294 1.21761 10.4986 2.2725 9.44371L9.78584 1.93121C10.1318 1.57304 10.5456 1.28736 11.0031 1.09083C11.4606 0.894294 11.9527 0.790845 12.4506 0.786519C12.9485 0.782192 13.4423 0.877073 13.9032 1.06563C14.364 1.25418 14.7827 1.53263 15.1348 1.88473C15.4869 2.23682 15.7654 2.65552 15.9539 3.11638C16.1425 3.57724 16.2374 4.07104 16.233 4.56896C16.2287 5.06688 16.1253 5.55896 15.9287 6.01647C15.7322 6.47399 15.4465 6.88778 15.0883 7.23371L7.57584 14.7504C7.22226 15.092 6.74866 15.281 6.25704 15.2768C5.76542 15.2727 5.29512 15.0755 4.94742 14.7279C4.59973 14.3804 4.40246 13.9101 4.39811 13.4185C4.39376 12.9269 4.58268 12.4532 4.92417 12.0995L12.4375 4.58371" stroke="#3173AF" stroke-width="1.5" stroke-linecap="round" stroke-linejoin="round"/>
</g>
<defs>
<clipPath id="clip0_5_2891">
<rect width="20" height="20" fill="white" transform="translate(0 0.000488281)"/>
</clipPath>
</defs>
</svg>
