<svg width="12" height="12" viewBox="0 0 12 12" fill="none" xmlns="http://www.w3.org/2000/svg">
<path d="M11 5.00014H7V1.00014C7 0.734921 6.89464 0.480567 6.70711 0.293031C6.51957 0.105494 6.26522 0.000137329 6 0.000137329C5.73478 0.000137329 5.48043 0.105494 5.29289 0.293031C5.10536 0.480567 5 0.734921 5 1.00014V5.00014H1C0.734784 5.00014 0.48043 5.10549 0.292893 5.29303C0.105357 5.48057 0 5.73492 0 6.00014C0 6.26535 0.105357 6.51971 0.292893 6.70724C0.48043 6.89478 0.734784 7.00014 1 7.00014H5V11.0001C5 11.2654 5.10536 11.5197 5.29289 11.7072C5.48043 11.8948 5.73478 12.0001 6 12.0001C6.26522 12.0001 6.51957 11.8948 6.70711 11.7072C6.89464 11.5197 7 11.2654 7 11.0001V7.00014H11C11.2652 7.00014 11.5196 6.89478 11.7071 6.70724C11.8946 6.51971 12 6.26535 12 6.00014C12 5.73492 11.8946 5.48057 11.7071 5.29303C11.5196 5.10549 11.2652 5.00014 11 5.00014Z" fill="#3173B0"/>
</svg>
