<svg width="24" height="24" viewBox="0 0 24 24" fill="none" xmlns="http://www.w3.org/2000/svg">
<path d="M10.6001 10.143C11.2872 10.9625 11.7064 11.973 11.8012 13.0382C11.896 14.1034 11.6617 15.1721 11.1301 16.1C10.6594 16.1364 10.1925 15.9926 9.82378 15.6978C9.45508 15.403 9.21212 14.9791 9.14406 14.512C8.43928 14.8971 7.8592 15.4756 7.4721 16.1792C7.08501 16.8829 6.90701 17.6826 6.95906 18.484C6.95906 19.11 7.08237 19.7298 7.32194 20.3081C7.56152 20.8864 7.91267 21.4119 8.35534 21.8544C8.79801 22.297 9.32353 22.648 9.90188 22.8875C10.4802 23.127 11.1001 23.2501 11.7261 23.25C12.9848 23.2329 14.1871 22.7253 15.0772 21.8352C15.9674 20.9451 16.475 19.7427 16.4921 18.484C16.6681 13.783 13.9381 11.235 10.6001 10.143Z" stroke="#EF5C5C" stroke-linecap="round" stroke-linejoin="round"/>
<path d="M20.617 6.74899H20.25L17.618 10.039C16.6205 6.99929 16.7483 3.70238 17.978 0.748993C15.6864 0.865129 13.463 1.56777 11.5208 2.7896C9.57863 4.01143 7.98274 5.71152 6.88601 7.72699L4.50001 5.39999C3.10518 6.82353 2.1443 8.61464 1.72965 10.564C1.315 12.5134 1.46371 14.5405 2.15839 16.4085C2.85308 18.2765 4.06506 19.9082 5.65269 21.113C7.24032 22.3177 9.13804 23.0458 11.1241 23.212C13.1101 23.3782 15.1025 22.9758 16.8683 22.0517C18.6341 21.1277 20.1005 19.7201 21.096 17.9936C22.0916 16.2671 22.5752 14.2929 22.4904 12.3017C22.4055 10.3105 21.7558 8.3846 20.617 6.74899Z" stroke="#EF5C5C" stroke-linecap="round" stroke-linejoin="round"/>
</svg>
