<svg width="24" height="25" viewBox="0 0 24 25" fill="none" xmlns="http://www.w3.org/2000/svg">
<g clip-path="url(#clip0_304_1325)">
<path d="M2.25 6.5C2.25 7.09674 2.48705 7.66903 2.90901 8.09099C3.33097 8.51295 3.90326 8.75 4.5 8.75C5.09674 8.75 5.66903 8.51295 6.09099 8.09099C6.51295 7.66903 6.75 7.09674 6.75 6.5C6.75 5.90326 6.51295 5.33097 6.09099 4.90901C5.66903 4.48705 5.09674 4.25 4.5 4.25C3.90326 4.25 3.33097 4.48705 2.90901 4.90901C2.48705 5.33097 2.25 5.90326 2.25 6.5Z" stroke="white" stroke-width="1.5" stroke-linecap="round" stroke-linejoin="round"/>
<path d="M4.5 10.25C3.50544 10.25 2.55161 10.6451 1.84835 11.3483C1.14509 12.0516 0.75 13.0054 0.75 14V16.25H2.25L3 22.25H6" stroke="white" stroke-width="1.5" stroke-linecap="round" stroke-linejoin="round"/>
<path d="M17.25 6.5C17.25 7.09674 17.4871 7.66903 17.909 8.09099C18.331 8.51295 18.9033 8.75 19.5 8.75C20.0967 8.75 20.669 8.51295 21.091 8.09099C21.5129 7.66903 21.75 7.09674 21.75 6.5C21.75 5.90326 21.5129 5.33097 21.091 4.90901C20.669 4.48705 20.0967 4.25 19.5 4.25C18.9033 4.25 18.331 4.48705 17.909 4.90901C17.4871 5.33097 17.25 5.90326 17.25 6.5Z" stroke="white" stroke-width="1.5" stroke-linecap="round" stroke-linejoin="round"/>
<path d="M19.5 10.25C20.4946 10.25 21.4484 10.6451 22.1517 11.3483C22.8549 12.0516 23.25 13.0054 23.25 14V16.25H21.75L21 22.25H18" stroke="white" stroke-width="1.5" stroke-linecap="round" stroke-linejoin="round"/>
<path d="M9 4.25C9 5.04565 9.31607 5.80871 9.87868 6.37132C10.4413 6.93393 11.2044 7.25 12 7.25C12.7956 7.25 13.5587 6.93393 14.1213 6.37132C14.6839 5.80871 15 5.04565 15 4.25C15 3.45435 14.6839 2.69129 14.1213 2.12868C13.5587 1.56607 12.7956 1.25 12 1.25C11.2044 1.25 10.4413 1.56607 9.87868 2.12868C9.31607 2.69129 9 3.45435 9 4.25Z" stroke="white" stroke-width="1.5" stroke-linecap="round" stroke-linejoin="round"/>
<path d="M17.25 14C17.25 12.6076 16.6969 11.2723 15.7123 10.2877C14.7277 9.30312 13.3924 8.75 12 8.75C10.6076 8.75 9.27226 9.30312 8.28769 10.2877C7.30312 11.2723 6.75 12.6076 6.75 14V16.25H9L9.75 23.75H14.25L15 16.25H17.25V14Z" stroke="white" stroke-width="1.5" stroke-linecap="round" stroke-linejoin="round"/>
</g>
<defs>
<clipPath id="clip0_304_1325">
<rect width="24" height="24" fill="white" transform="translate(0 0.5)"/>
</clipPath>
</defs>
</svg>
