<svg width="24" height="25" viewBox="0 0 24 25" fill="none" xmlns="http://www.w3.org/2000/svg">
<path d="M18.0001 12.5001C17.9953 11.974 17.7833 11.471 17.4101 11.1001L13.1201 6.80007C12.9328 6.61382 12.6793 6.50928 12.4151 6.50928C12.1509 6.50928 11.8975 6.61382 11.7101 6.80007C11.6164 6.89303 11.542 7.00363 11.4912 7.12549C11.4405 7.24735 11.4143 7.37806 11.4143 7.51007C11.4143 7.64208 11.4405 7.77279 11.4912 7.89465C11.542 8.0165 11.6164 8.12711 11.7101 8.22007L15.0001 11.5001H5.00012C4.73491 11.5001 4.48055 11.6054 4.29302 11.793C4.10548 11.9805 4.00012 12.2348 4.00012 12.5001C4.00012 12.7653 4.10548 13.0196 4.29302 13.2072C4.48055 13.3947 4.73491 13.5001 5.00012 13.5001H15.0001L11.7101 16.7901C11.5218 16.977 11.4155 17.2312 11.4146 17.4965C11.4136 17.7619 11.5181 18.0168 11.7051 18.2051C11.8921 18.3934 12.1462 18.4997 12.4116 18.5006C12.677 18.5016 12.9318 18.397 13.1201 18.2101L17.4101 13.9101C17.7857 13.5367 17.9979 13.0296 18.0001 12.5001Z" fill="#3173B0"/>
</svg>
