<svg width="24" height="25" viewBox="0 0 24 25" fill="none" xmlns="http://www.w3.org/2000/svg">
<path d="M6 12.5001C6.00487 11.974 6.21684 11.471 6.59 11.1001L10.88 6.80007C11.0674 6.61382 11.3208 6.50928 11.585 6.50928C11.8492 6.50928 12.1026 6.61382 12.29 6.80007C12.3837 6.89303 12.4581 7.00363 12.5089 7.12549C12.5597 7.24735 12.5858 7.37806 12.5858 7.51007C12.5858 7.64208 12.5597 7.77279 12.5089 7.89465C12.4581 8.0165 12.3837 8.12711 12.29 8.22007L9 11.5001H19C19.2652 11.5001 19.5196 11.6054 19.7071 11.793C19.8946 11.9805 20 12.2348 20 12.5001C20 12.7653 19.8946 13.0196 19.7071 13.2072C19.5196 13.3947 19.2652 13.5001 19 13.5001H9L12.29 16.7901C12.4783 16.977 12.5846 17.2312 12.5856 17.4965C12.5865 17.7619 12.482 18.0168 12.295 18.2051C12.108 18.3934 11.8539 18.4997 11.5885 18.5006C11.3232 18.5016 11.0683 18.397 10.88 18.2101L6.59 13.9101C6.21441 13.5367 6.00223 13.0296 6 12.5001Z" fill="#3173B0"/>
</svg>
