<svg width="155" height="18" viewBox="0 0 155 18" fill="none" xmlns="http://www.w3.org/2000/svg">
<path d="M3.84 0.599977V13.704H9.84V17.4H0V0.599977H3.84Z" fill="#1F2A37"/>
<path d="M14.8913 10.728V13.704H21.6112V17.4H11.0513V0.599977H21.4913V4.29598H14.8913V7.07998H20.8913V10.728H14.8913Z" fill="#1F2A37"/>
<path d="M38.4122 17.4H34.2122L33.3722 14.76H27.1322L26.2922 17.4H22.0922L27.8042 0.599977H32.7002L38.4122 17.4ZM30.2522 4.99198L28.2842 11.16H32.2202L30.2522 4.99198Z" fill="#1F2A37"/>
<path d="M39.3647 0.599977H46.0847C48.3887 0.599977 50.3247 1.40798 51.8927 3.02398C53.4607 4.63998 54.2447 6.63198 54.2447 8.99998C54.2447 11.384 53.4607 13.384 51.8927 15C50.3407 16.6 48.4047 17.4 46.0847 17.4H39.3647V0.599977ZM43.2047 13.704H46.0847C47.4127 13.704 48.4847 13.28 49.3007 12.432C50.1327 11.584 50.5487 10.44 50.5487 8.99998C50.5487 7.55998 50.1327 6.42398 49.3007 5.59198C48.4847 4.72798 47.4127 4.29598 46.0847 4.29598H43.2047V13.704Z" fill="#1F2A37"/>
<path d="M65.0437 11.952H55.9238V8.49598H65.0437V11.952Z" fill="#1F2A37"/>
<path d="M81.6517 15.216C79.9557 16.896 77.8917 17.736 75.4597 17.736C73.0277 17.736 70.9637 16.896 69.2677 15.216C67.5717 13.536 66.7237 11.464 66.7237 8.99998C66.7237 6.53598 67.5717 4.46398 69.2677 2.78398C70.9637 1.10398 73.0277 0.263977 75.4597 0.263977C77.8917 0.263977 79.9557 1.10398 81.6517 2.78398C83.3477 4.46398 84.1957 6.53598 84.1957 8.99998C84.1957 11.464 83.3477 13.536 81.6517 15.216ZM70.5637 8.99998C70.5637 10.472 71.0277 11.672 71.9557 12.6C72.8838 13.528 74.0518 13.992 75.4597 13.992C76.8517 13.992 78.0117 13.528 78.9397 12.6C79.8837 11.656 80.3557 10.456 80.3557 8.99998C80.3557 7.54398 79.8837 6.34398 78.9397 5.39998C78.0117 4.47198 76.8517 4.00798 75.4597 4.00798C74.0518 4.00798 72.8838 4.47198 71.9557 5.39998C71.0277 6.32798 70.5637 7.52798 70.5637 8.99998Z" fill="#1F2A37"/>
<path d="M96.0778 0.599977V4.29598H89.7178V7.53598H95.9578V11.232H89.7178V17.4H85.8778V0.599977H96.0778Z" fill="#1F2A37"/>
<path d="M108.067 0.599977V4.29598H101.707V7.53598H107.947V11.232H101.707V17.4H97.8666V0.599977H108.067Z" fill="#1F2A37"/>
<path d="M112.86 15.456C112.86 16.08 112.636 16.616 112.188 17.064C111.74 17.512 111.204 17.736 110.58 17.736C109.956 17.736 109.42 17.512 108.972 17.064C108.524 16.616 108.3 16.08 108.3 15.456C108.3 14.832 108.524 14.296 108.972 13.848C109.42 13.4 109.956 13.176 110.58 13.176C111.204 13.176 111.74 13.4 112.188 13.848C112.636 14.296 112.86 14.832 112.86 15.456Z" fill="#1F2A37"/>
<path d="M124.267 9.71998V0.599977H128.107V17.4H125.227L118.747 8.27998V17.4H114.907V0.599977H117.787L124.267 9.71998Z" fill="#1F2A37"/>
<path d="M134.345 10.728V13.704H141.065V17.4H130.505V0.599977H140.945V4.29598H134.345V7.07998H140.345V10.728H134.345Z" fill="#1F2A37"/>
<path d="M141.551 0.599977H154.031V4.29598H149.711V17.4H145.871V4.29598H141.551V0.599977Z" fill="#1F2A37"/>
</svg>
