<svg width="155" height="18" viewBox="0 0 155 18" fill="none" xmlns="http://www.w3.org/2000/svg">
<path d="M3.84 0.599916V13.7039H9.84V17.3999H0V0.599916H3.84Z" fill="white"/>
<path d="M14.8913 10.7279V13.7039H21.6112V17.3999H11.0513V0.599916H21.4913V4.29592H14.8913V7.07992H20.8913V10.7279H14.8913Z" fill="white"/>
<path d="M38.4122 17.3999H34.2122L33.3722 14.7599H27.1322L26.2922 17.3999H22.0922L27.8042 0.599916H32.7002L38.4122 17.3999ZM30.2522 4.99192L28.2842 11.1599H32.2202L30.2522 4.99192Z" fill="white"/>
<path d="M39.3647 0.599916H46.0847C48.3887 0.599916 50.3247 1.40792 51.8927 3.02392C53.4607 4.63992 54.2447 6.63192 54.2447 8.99992C54.2447 11.3839 53.4607 13.3839 51.8927 14.9999C50.3407 16.5999 48.4047 17.3999 46.0847 17.3999H39.3647V0.599916ZM43.2047 13.7039H46.0847C47.4127 13.7039 48.4847 13.2799 49.3007 12.4319C50.1327 11.5839 50.5487 10.4399 50.5487 8.99992C50.5487 7.55992 50.1327 6.42392 49.3007 5.59192C48.4847 4.72792 47.4127 4.29592 46.0847 4.29592H43.2047V13.7039Z" fill="white"/>
<path d="M65.0437 11.9519H55.9238V8.49592H65.0437V11.9519Z" fill="white"/>
<path d="M81.6517 15.2159C79.9557 16.8959 77.8917 17.7359 75.4597 17.7359C73.0277 17.7359 70.9637 16.8959 69.2677 15.2159C67.5717 13.5359 66.7237 11.4639 66.7237 8.99992C66.7237 6.53592 67.5717 4.46392 69.2677 2.78392C70.9637 1.10392 73.0277 0.263916 75.4597 0.263916C77.8917 0.263916 79.9557 1.10392 81.6517 2.78392C83.3477 4.46392 84.1957 6.53592 84.1957 8.99992C84.1957 11.4639 83.3477 13.5359 81.6517 15.2159ZM70.5637 8.99992C70.5637 10.4719 71.0277 11.6719 71.9557 12.5999C72.8838 13.5279 74.0518 13.9919 75.4597 13.9919C76.8517 13.9919 78.0117 13.5279 78.9397 12.5999C79.8837 11.6559 80.3557 10.4559 80.3557 8.99992C80.3557 7.54392 79.8837 6.34392 78.9397 5.39992C78.0117 4.47192 76.8517 4.00792 75.4597 4.00792C74.0518 4.00792 72.8838 4.47192 71.9557 5.39992C71.0277 6.32792 70.5637 7.52792 70.5637 8.99992Z" fill="white"/>
<path d="M96.0778 0.599916V4.29592H89.7178V7.53592H95.9578V11.2319H89.7178V17.3999H85.8778V0.599916H96.0778Z" fill="white"/>
<path d="M108.067 0.599916V4.29592H101.707V7.53592H107.947V11.2319H101.707V17.3999H97.8666V0.599916H108.067Z" fill="white"/>
<path d="M112.86 15.4559C112.86 16.0799 112.636 16.6159 112.188 17.0639C111.74 17.5119 111.204 17.7359 110.58 17.7359C109.956 17.7359 109.42 17.5119 108.972 17.0639C108.524 16.6159 108.3 16.0799 108.3 15.4559C108.3 14.8319 108.524 14.2959 108.972 13.8479C109.42 13.3999 109.956 13.1759 110.58 13.1759C111.204 13.1759 111.74 13.3999 112.188 13.8479C112.636 14.2959 112.86 14.8319 112.86 15.4559Z" fill="white"/>
<path d="M124.267 9.71992V0.599916H128.107V17.3999H125.227L118.747 8.27992V17.3999H114.907V0.599916H117.787L124.267 9.71992Z" fill="white"/>
<path d="M134.345 10.7279V13.7039H141.065V17.3999H130.505V0.599916H140.945V4.29592H134.345V7.07992H140.345V10.7279H134.345Z" fill="white"/>
<path d="M141.551 0.599916H154.031V4.29592H149.711V17.3999H145.871V4.29592H141.551V0.599916Z" fill="white"/>
</svg>
