<svg width="25" height="24" viewBox="0 0 25 24" fill="none" xmlns="http://www.w3.org/2000/svg">
<g clip-path="url(#clip0_21_1094)">
<path d="M7.26562 9.75C7.26563 11.1424 7.81875 12.4777 8.80331 13.4623C9.78788 14.4469 11.1232 15 12.5156 15C13.908 15 15.2434 14.4469 16.2279 13.4623C17.2125 12.4777 17.7656 11.1424 17.7656 9.75C17.7656 8.35761 17.2125 7.02226 16.2279 6.03769C15.2434 5.05312 13.908 4.5 12.5156 4.5C11.1232 4.5 9.78788 5.05312 8.80331 6.03769C7.81875 7.02226 7.26563 8.35761 7.26562 9.75Z" stroke="#3173B0" stroke-width="1.5" stroke-linecap="round" stroke-linejoin="round"/>
<path d="M19.4285 20.876C18.5228 19.9646 17.4457 19.2412 16.2593 18.7476C15.0728 18.254 13.8005 17.9999 12.5155 17.9999C11.2305 17.9999 9.95823 18.254 8.77182 18.7476C7.58541 19.2412 6.50832 19.9646 5.60254 20.876" stroke="#3173B0" stroke-width="1.5" stroke-linecap="round" stroke-linejoin="round"/>
<path d="M1.26562 12C1.26563 14.9837 2.45089 17.8452 4.56067 19.955C6.67046 22.0647 9.53194 23.25 12.5156 23.25C15.4993 23.25 18.3608 22.0647 20.4706 19.955C22.5804 17.8452 23.7656 14.9837 23.7656 12C23.7656 9.01631 22.5804 6.15483 20.4706 4.04505C18.3608 1.93526 15.4993 0.75 12.5156 0.75C9.53194 0.75 6.67046 1.93526 4.56067 4.04505C2.45089 6.15483 1.26563 9.01631 1.26562 12Z" stroke="#3173B0" stroke-width="1.5" stroke-linecap="round" stroke-linejoin="round"/>
</g>
<defs>
<clipPath id="clip0_21_1094">
<rect width="24" height="24" fill="white" transform="translate(0.515625)"/>
</clipPath>
</defs>
</svg>
